<?xml version="1.0" encoding="utf-8"?>
<!-- Generator: Adobe Illustrator 24.3.0, SVG Export Plug-In . SVG Version: 6.00 Build 0)  -->
<svg version="1.1" id="Layer_1" xmlns="http://www.w3.org/2000/svg" xmlns:xlink="http://www.w3.org/1999/xlink" x="0px" y="0px"
	 viewBox="0 0 285.5 75" style="enable-background:new 0 0 285.5 75;" xml:space="preserve">
<style type="text/css">
	.st0{fill:#1D75B8;}
	.st1{fill:#1B255B;}
	.st2{fill:#121935;}
</style>
<g>
	<path class="st0" d="M52.5,36.5c-4.7,0-8.4,3.8-8.4,8.4c0,4.7,3.8,8.4,8.4,8.4s8.4-3.8,8.4-8.4C60.9,40.2,57.2,36.5,52.5,36.5
		C52.5,36.5,52.5,36.5,52.5,36.5z M55.3,47.2c-0.1,0.2-0.2,0.5-0.4,0.6c-0.2,0.2-0.4,0.4-0.6,0.5c-0.3,0.2-0.6,0.3-1,0.3v1.4h-1.5
		v-1.4c-0.5,0-0.9-0.1-1.4-0.3c-0.3-0.1-0.5-0.2-0.8-0.3l0.5-1.3c0.3,0.1,0.6,0.3,1,0.4c0.4,0.1,0.8,0.2,1.2,0.2c0.3,0,0.7,0,1-0.2
		c0.2-0.1,0.3-0.3,0.3-0.5c0-0.1,0-0.3-0.1-0.4c-0.1-0.1-0.2-0.2-0.3-0.3c-0.2-0.1-0.3-0.2-0.5-0.3c-0.2-0.1-0.4-0.2-0.7-0.3
		c-0.3-0.1-0.5-0.2-0.8-0.3c-0.2-0.1-0.5-0.2-0.7-0.4c-0.2-0.2-0.4-0.4-0.5-0.6c-0.1-0.3-0.2-0.6-0.2-0.9c0-0.3,0-0.5,0.1-0.7
		c0.1-0.2,0.2-0.5,0.3-0.7c0.2-0.2,0.4-0.4,0.6-0.5c0.3-0.1,0.6-0.2,0.9-0.3v-1.3h1.5v1.2c0.4,0,0.7,0.1,1,0.2
		c0.2,0.1,0.5,0.1,0.7,0.2l-0.4,1.4c-0.3-0.1-0.6-0.2-0.9-0.3c-0.4-0.1-0.7-0.1-1.1-0.1c-0.3,0-0.6,0-0.8,0.2
		c-0.2,0.1-0.3,0.3-0.2,0.5c0,0.1,0,0.2,0.1,0.3c0.1,0.1,0.1,0.2,0.2,0.2c0.1,0.1,0.3,0.2,0.4,0.2c0.2,0.1,0.4,0.1,0.6,0.2
		c0.3,0.1,0.6,0.3,1,0.4c0.3,0.1,0.5,0.3,0.8,0.5c0.2,0.2,0.4,0.4,0.5,0.7c0.1,0.3,0.2,0.6,0.2,0.9C55.4,46.8,55.3,47,55.3,47.2
		L55.3,47.2z"/>
	<path class="st1" d="M46,37.1l-5.8-5.7c1.8-2.8,1-6.5-1.8-8.4c-2.8-1.8-6.5-1-8.4,1.8c-1.3,2-1.3,4.6,0,6.6L18.6,43
		c-2.8-1.8-6.6-1-8.4,1.8c-1.8,2.8-1,6.6,1.8,8.4s6.6,1,8.4-1.8c1.3-2,1.3-4.6,0-6.6l11.5-11.7c2,1.3,4.6,1.3,6.6,0l5.9,5.8
		C44.8,38.2,45.4,37.6,46,37.1z"/>
	<path class="st1" d="M70.7,20.9c-3.3,0-6,2.7-6,6c0,1.2,0.3,2.3,1,3.3L58.9,37c0.6,0.5,1.2,1.1,1.7,1.8l6.8-6.8
		c2.8,1.8,6.5,1,8.4-1.8c1.8-2.8,1-6.5-1.8-8.4C73.1,21.2,71.9,20.9,70.7,20.9L70.7,20.9z"/>
</g>
<g>
	<path class="st2" d="M96.8,27.5h9.6v1.9h-7.3v5.9h6.7v1.9h-6.7v8h-2.3V27.5z"/>
	<path class="st2" d="M111.9,27.5v17.8h-2.3V27.5H111.9z"/>
	<path class="st2" d="M115.9,45.2V27.5h2.5l5.7,9c1.3,2.1,2.3,4,3.2,5.8l0.1,0c-0.2-2.4-0.3-4.5-0.3-7.3v-7.4h2.2v17.8H127l-5.6-9
		c-1.2-2-2.4-4-3.3-5.9l-0.1,0c0.1,2.2,0.2,4.4,0.2,7.3v7.6H115.9z"/>
	<path class="st2" d="M136.2,39.6l-1.8,5.6h-2.4l6-17.8h2.8l6.1,17.8h-2.5l-1.9-5.6H136.2z M142,37.9l-1.7-5.1
		c-0.4-1.2-0.7-2.2-0.9-3.2h-0.1c-0.3,1.1-0.6,2.1-0.9,3.2l-1.7,5.1H142z"/>
	<path class="st2" d="M149.4,45.2V27.5h2.5l5.7,9c1.3,2.1,2.3,4,3.2,5.8l0.1,0c-0.2-2.4-0.3-4.5-0.3-7.3v-7.4h2.2v17.8h-2.3l-5.6-9
		c-1.2-2-2.4-4-3.3-5.9l-0.1,0c0.1,2.2,0.2,4.4,0.2,7.3v7.6H149.4z"/>
	<path class="st2" d="M179.2,44.7c-0.8,0.4-2.5,0.8-4.7,0.8c-5,0-8.8-3.2-8.8-9c0-5.6,3.8-9.3,9.3-9.3c2.2,0,3.6,0.5,4.2,0.8
		l-0.6,1.9c-0.9-0.4-2.1-0.7-3.6-0.7c-4.2,0-6.9,2.7-6.9,7.3c0,4.3,2.5,7.1,6.8,7.1c1.4,0,2.8-0.3,3.7-0.7L179.2,44.7z"/>
	<path class="st2" d="M184.3,27.5v17.8H182V27.5H184.3z"/>
	<path class="st2" d="M191.2,39.6l-1.8,5.6H187l6-17.8h2.8l6.1,17.8h-2.5l-1.9-5.6H191.2z M197,37.9l-1.7-5.1
		c-0.4-1.2-0.7-2.2-0.9-3.2h-0.1c-0.3,1.1-0.6,2.1-0.9,3.2l-1.7,5.1H197z"/>
	<path class="st2" d="M204.4,27.5h2.3v15.8h7.6v1.9h-9.9V27.5z"/>
	<path class="st2" d="M219.7,39.6l-1.8,5.6h-2.4l6-17.8h2.8l6.1,17.8h-2.5l-1.9-5.6H219.7z M225.6,37.9l-1.7-5.1
		c-0.4-1.2-0.7-2.2-0.9-3.2h-0.1c-0.3,1.1-0.6,2.1-0.9,3.2l-1.7,5.1H225.6z"/>
	<path class="st2" d="M233,27.7c1.2-0.2,2.8-0.4,4.4-0.4c2.5,0,4,0.4,5.1,1.4c0.9,0.8,1.4,2,1.4,3.4c0,2.3-1.5,3.9-3.3,4.5v0.1
		c1.4,0.5,2.2,1.7,2.6,3.6c0.6,2.5,1,4.2,1.4,4.9h-2.4c-0.3-0.5-0.7-2-1.2-4.2c-0.5-2.5-1.5-3.4-3.6-3.5h-2.2v7.7H233V27.7z
		 M235.3,35.8h2.3c2.5,0,4-1.3,4-3.4c0-2.3-1.7-3.3-4.1-3.3c-1.1,0-1.9,0.1-2.3,0.2V35.8z"/>
	<path class="st2" d="M260.8,44.4c-1,0.4-3.1,1-5.5,1c-2.7,0-4.9-0.7-6.6-2.3c-1.5-1.5-2.5-3.8-2.5-6.6c0-5.3,3.7-9.2,9.6-9.2
		c2.1,0,3.7,0.4,4.4,0.8l-0.6,1.9c-0.9-0.4-2.1-0.8-3.9-0.8c-4.3,0-7.1,2.7-7.1,7.1c0,4.5,2.7,7.2,6.9,7.2c1.5,0,2.5-0.2,3.1-0.5
		v-5.3h-3.6v-1.8h5.9V44.4z"/>
</g>
</svg>
